<svg xmlns="http://www.w3.org/2000/svg" viewBox="0 0 1774 887" width="1774" height="887">
  <g transform="translate(0,887) scale(0.1,-0.1)" fill="#ffffff" stroke="none">
  <path d="M2767 5442 c-16 -17 -17 -100 -17 -984 l0 -966 23 -5 c12 -2 99 -3
192 -1 l170 3 5 707 5 708 175 -193 c96 -106 204 -225 239 -265 134 -149 603
-647 756 -804 l160 -163 203 7 202 7 -2 981 -3 981 -195 0 -195 0 -3 -692 c-1
-381 -6 -693 -10 -693 -9 0 -357 366 -622 655 -240 261 -469 504 -594 633
l-101 102 -186 0 c-167 0 -188 -2 -202 -18z"/>
  <path d="M12652 5408 c-27 -27 -33 -13 193 -433 164 -305 412 -770 550 -1035
254 -487 231 -448 276 -460 50 -14 377 -7 405 8 13 7 103 169 229 414 115 222
261 502 325 623 121 227 216 411 360 693 67 130 82 167 73 180 -9 15 -37 17
-222 20 -170 2 -217 0 -240 -12 -22 -12 -54 -67 -161 -278 -116 -230 -283
-556 -508 -990 -37 -71 -69 -128 -72 -128 -7 0 -137 255 -446 872 -155 308
-263 513 -276 522 -19 13 -60 16 -248 16 -162 0 -229 -3 -238 -12z"/>
  <path d="M5830 5069 c-151 -19 -306 -80 -427 -165 -201 -143 -315 -396 -301
-671 11 -211 79 -373 213 -508 89 -89 155 -132 279 -181 142 -56 231 -69 486
-68 302 0 427 25 598 121 68 37 202 147 202 165 0 5 -12 20 -27 31 -16 12 -70
57 -120 99 -135 113 -122 109 -185 55 -64 -54 -141 -91 -223 -106 -90 -17
-437 -14 -513 4 -89 21 -160 60 -214 117 -46 48 -88 131 -74 146 4 4 330 8
723 10 l715 3 -4 182 c-4 162 -8 191 -31 262 -93 283 -338 467 -670 504 -110
13 -331 12 -427 0z m451 -353 c71 -15 134 -43 186 -83 36 -28 88 -105 98 -145
l7 -28 -526 0 c-424 0 -526 3 -526 13 0 26 66 116 114 156 46 37 153 84 216
94 68 11 370 6 431 -7z"/>
  <path d="M6957 5053 c-19 -19 -5 -61 34 -98 33 -32 448 -467 606 -635 l33 -36
-340 -359 c-319 -338 -340 -362 -340 -396 0 -27 5 -38 18 -40 9 -2 116 -2 237
1 l221 5 149 160 c83 88 188 200 235 249 l86 88 238 -251 237 -251 240 0 239
0 0 41 c0 44 47 -8 -573 636 -60 62 -107 116 -105 121 1 5 154 166 338 357
292 302 335 351 338 381 l3 34 -243 0 -244 0 -149 -157 c-81 -87 -187 -198
-234 -247 l-86 -88 -45 50 c-25 27 -128 138 -230 246 l-185 196 -236 0 c-130
0 -239 -3 -242 -7z"/>
  <path d="M8973 4563 c6 -552 7 -564 74 -703 53 -112 168 -223 294 -284 152
-73 309 -106 509 -106 201 0 359 33 510 107 127 62 249 180 303 293 71 149 70
140 75 693 l3 497 -205 0 -205 0 -3 -482 -3 -483 -28 -57 c-68 -139 -215 -208
-447 -208 -232 0 -367 64 -432 205 -23 50 -23 53 -26 538 l-3 487 -211 0 -210
0 5 -497z"/>
  <path d="M11280 5041 c-149 -47 -278 -155 -320 -267 -57 -155 -40 -325 46
-451 56 -82 177 -164 283 -193 29 -7 158 -12 375 -13 301 -2 334 -4 367 -21
48 -24 69 -63 69 -124 0 -35 -6 -57 -22 -77 -43 -55 -43 -55 -608 -55 l-520 0
0 -175 0 -175 493 -2 c624 -4 621 -4 714 27 142 48 228 123 291 253 31 65 36
86 40 172 3 60 0 118 -8 151 -40 174 -188 309 -387 353 -57 13 -134 16 -380
16 -288 0 -310 1 -340 20 -44 26 -66 63 -66 111 0 48 17 83 52 106 24 16 71
18 536 23 l510 5 3 168 2 167 -537 -1 c-486 0 -543 -2 -593 -18z"/>
  </g>
</svg>