<svg fill="currentColor" fill-rule="evenodd" height="1em" style="flex:none;line-height:1" viewBox="0 0 24 24" width="1em" xmlns="http://www.w3.org/2000/svg"><title>SenseNova</title><path d="M12 2C6.48 2 2 6.48 2 12s4.48 10 10 10 10-4.48 10-10S17.52 2 12 2zm0 3c1.66 0 3 1.34 3 3s-1.34 3-3 3-3-1.34-3-3 1.34-3 3-3zm0 14.2c-2.5 0-4.71-1.28-6-3.22.03-1.99 4-3.08 6-3.08 1.99 0 5.97 1.09 6 3.08-1.29 1.94-3.5 3.22-6 3.22z"/><circle cx="18" cy="7" r="2.5"/><path d="M18 10.5c-1.33 0-2.55.48-3.5 1.27 1.14.74 2.46 1.16 3.5 1.16s2.36-.42 3.5-1.16c-.95-.79-2.17-1.27-3.5-1.27z"/></svg>